<svg xmlns="http://www.w3.org/2000/svg" viewBox="0 0 200 200" width="200" height="200">
  <title>Fox — stage 7: Ultra</title>
  <defs><radialGradient id="auraGrad" cx="50%" cy="55%" r="50%"><stop offset="0%" stop-color="#ffd21f" stop-opacity="0.5"/><stop offset="70%" stop-color="#ff9f2e" stop-opacity="0.25"/><stop offset="100%" stop-color="#ff9f2e" stop-opacity="0"/></radialGradient><radialGradient id="eyeGradL" cx="80" cy="86" fx="80" fy="86" r="6.5" gradientTransform="matrix(1,0,0,1.3076923,0,-26.461538)" gradientUnits="userSpaceOnUse"><stop offset="0.22" stop-color="#000000"/><stop offset="1" stop-color="#ffbf1f"/></radialGradient><radialGradient id="eyeGradR" cx="124" cy="86" fx="124" fy="86" r="6.5" gradientTransform="matrix(1,0,0,1.3076923,0,-26.461538)" gradientUnits="userSpaceOnUse"><stop offset="0.22" stop-color="#000000"/><stop offset="1" stop-color="#ffbf1f"/></radialGradient></defs>
  <circle id="aura" cx="100" cy="112" r="88" fill="url(#auraGrad)"/>
  <g id="pet" transform="translate(100,196) scale(0.93) translate(-100,-196)"><g id="tail" transform="rotate(4 140 170)"><path d="M136,170 C160,168 174,148 172,120 C172,110 176,104 172,98 C186,118 188,152 168,172 C156,183 142,182 136,177 Z" fill="#ed7d2d"/><path d="M172,98 C178,108 180,118 178,128 C170,122 168,112 168,104 Z" fill="#ffffff"/><path d="M168,98 C162,90 164,80 172,74 C180,80 182,90 176,98 Z" fill="#b28bff"/></g><ellipse id="footL" cx="76" cy="187" rx="15" ry="10" fill="#ca5c16"/><ellipse id="footR" cx="124" cy="187" rx="15" ry="10" fill="#ca5c16"/><ellipse id="body" cx="100" cy="150" rx="44" ry="38" fill="#ed7d2d"/><ellipse id="belly" cx="100" cy="158" rx="27" ry="25" fill="#fff4e4"/><ellipse id="armL" cx="63" cy="146" rx="10" ry="15" transform="rotate(18 63 146)" fill="#ca5c16"/><ellipse id="armR" cx="137" cy="146" rx="10" ry="15" transform="rotate(-18 137 146)" fill="#ca5c16"/><path id="earL" d="M58,70 L48,20 L92,44 Z" fill="#ed7d2d"/><path d="M55,52 L48,20 L68,31 Z" fill="#ca5c16"/><path id="earR" d="M142,70 L152,20 L108,44 Z" fill="#ed7d2d"/><path d="M145,52 L152,20 L132,31 Z" fill="#ca5c16"/><circle id="head" cx="100" cy="94" r="50" fill="#ed7d2d"/><path id="fluffL" d="M52,96 L34,90 L50,106 L36,108 L54,116 Z" fill="#ed7d2d"/><path id="fluffR" d="M148,96 L166,90 L150,106 L164,108 L146,116 Z" fill="#ed7d2d"/><path id="muzzle" d="M74,110 C74,96 88,92 100,92 C112,92 126,96 126,110 C126,126 112,134 100,134 C88,134 74,126 74,110 Z" fill="#fff4e4"/><path id="nose" d="M95,108 L105,108 L100,115 Z" fill="#26324e"/><path id="philtrum" d="M100,115 L100,119" fill="none" stroke="#26324e" stroke-width="2.6" stroke-linecap="round"/><path id="mouth" d="M89,119 Q100,128 111,119" fill="none" stroke="#26324e" stroke-width="3" stroke-linecap="round"/><path id="fangR" d="m 105.37,124.5 6.30,4.28 0.14,-7.21 z" fill="#ffffff"/><path id="fangL" d="m 94.17,124.0 -6.30,4.28 -0.14,-7.21 z" fill="#ffffff"/><g id="eyeL"><ellipse cx="78" cy="84" rx="13.0" ry="15.0" fill="#ffffff"/><ellipse cx="80" cy="86" rx="6.5" ry="8.5" fill="url(#eyeGradL)"/><circle cx="82.5" cy="82" r="2.6" fill="#ffffff"/></g><g id="eyeR"><ellipse cx="122" cy="84" rx="13.0" ry="15.0" fill="#ffffff"/><ellipse cx="124" cy="86" rx="6.5" ry="8.5" fill="url(#eyeGradR)"/><circle cx="126.5" cy="82" r="2.6" fill="#ffffff"/></g><ellipse id="cheekL" cx="64" cy="106" rx="8" ry="5" fill="#ff9c9c" opacity="0.55"/><ellipse id="cheekR" cx="136" cy="106" rx="8" ry="5" fill="#ff9c9c" opacity="0.55"/></g>
</svg>
