<svg xmlns="http://www.w3.org/2000/svg" viewBox="0 0 200 200" width="200" height="200">
  <title>Robot — stage 1: Hatchling</title>
  <g id="boxOpen"><path d="M46,96 L20,74 L58,66 Z" fill="#c09858"/><path d="M154,96 L180,74 L142,66 Z" fill="#c09858"/><circle cx="100" cy="96" r="40" fill="#b0bcd2"/><rect x="97" y="40" width="4" height="16" rx="2" fill="#7c88a0"/><circle cx="99" cy="36" r="5" fill="#ff9c9c"/><g><ellipse cx="84" cy="92" rx="10" ry="12" fill="#ffffff"/><ellipse cx="85.5" cy="94" rx="5" ry="6.6" fill="#26324e"/><circle cx="87.5" cy="90" r="2" fill="#ffffff"/></g><g><ellipse cx="116" cy="92" rx="10" ry="12" fill="#ffffff"/><ellipse cx="117.5" cy="94" rx="5" ry="6.6" fill="#26324e"/><circle cx="119.5" cy="90" r="2" fill="#ffffff"/></g><path d="M92,112 Q100,118 108,112" fill="none" stroke="#26324e" stroke-width="2.8" stroke-linecap="round"/><ellipse cx="72" cy="106" rx="6" ry="4" fill="#ff9c9c" opacity="0.55"/><ellipse cx="128" cy="106" rx="6" ry="4" fill="#ff9c9c" opacity="0.55"/><rect x="46" y="118" width="108" height="60" rx="8" fill="#d8b078"/><rect x="92" y="118" width="16" height="60" fill="#f0e6c8"/></g>
</svg>
