<svg xmlns="http://www.w3.org/2000/svg" viewBox="0 0 200 200" width="200" height="200">
  <title>Cat — stage 7: Ultra</title>
  <defs><radialGradient id="auraGrad" cx="50%" cy="55%" r="50%"><stop offset="0%" stop-color="#ffd21f" stop-opacity="0.5"/><stop offset="70%" stop-color="#ff9f2e" stop-opacity="0.25"/><stop offset="100%" stop-color="#ff9f2e" stop-opacity="0"/></radialGradient><radialGradient id="eyeGradL" cx="80" cy="86" fx="80" fy="86" r="6.5" gradientTransform="matrix(1,0,0,1.3076923,0,-26.461538)" gradientUnits="userSpaceOnUse"><stop offset="0.22" stop-color="#000000"/><stop offset="1" stop-color="#ffbf1f"/></radialGradient><radialGradient id="eyeGradR" cx="124" cy="86" fx="124" fy="86" r="6.5" gradientTransform="matrix(1,0,0,1.3076923,0,-26.461538)" gradientUnits="userSpaceOnUse"><stop offset="0.22" stop-color="#000000"/><stop offset="1" stop-color="#ffbf1f"/></radialGradient></defs>
  <circle id="aura" cx="100" cy="112" r="88" fill="url(#auraGrad)"/>
  <g id="pet" transform="translate(100,196) scale(0.93) translate(-100,-196)"><path id="tail" d="M136,168 C164,168 176,150 172,128 C182,144 182,168 164,178 C154,183 142,182 136,177 Z" fill="#e68a3c"/><path d="M168,136 C172,143 173,150 171,156 L163,151 C166,147 168,141 168,136 Z" fill="#b26020"/><ellipse id="footL" cx="76" cy="187" rx="15" ry="10" fill="#e68a3c"/><ellipse id="footR" cx="124" cy="187" rx="15" ry="10" fill="#e68a3c"/><ellipse id="body" cx="100" cy="150" rx="44" ry="38" fill="#e68a3c"/><ellipse id="belly" cx="100" cy="158" rx="27" ry="25" fill="#f6ecc3"/><ellipse id="armL" cx="63" cy="146" rx="10" ry="15" transform="rotate(18 63 146)" fill="#b26020"/><ellipse id="armR" cx="137" cy="146" rx="10" ry="15" transform="rotate(-18 137 146)" fill="#b26020"/><path id="earL" d="M60,64 L54,28 L88,46 Z" fill="#e68a3c"/><path d="M64,58 L60,38 L79,48 Z" fill="#ff9c9c" opacity="0.7"/><path id="earR" d="M140,64 L146,28 L112,46 Z" fill="#e68a3c"/><path d="M136,58 L140,38 L121,48 Z" fill="#ff9c9c" opacity="0.7"/><circle id="head" cx="100" cy="92" r="52" fill="#e68a3c"/><g id="stripes" fill="#b26020"><path d="M92,42 C94,50 94,56 92,62 L98,62 C99,55 99,48 98,42 Z"/><path d="M104,41 C106,49 106,55 104,61 L110,61 C111,54 111,47 110,41 Z" transform="rotate(8 107 51)"/><path d="M80,44 C82,50 82,55 80,60 L86,60 C87,54 87,49 86,44 Z" transform="rotate(-8 83 52)"/></g><ellipse id="muzzle" cx="100" cy="116" rx="24" ry="16" fill="#fdf6e4"/><path id="nose" d="M95,108 L105,108 L100,115 Z" fill="#ff9c9c"/><path id="philtrum" d="M100,115 L100,119" fill="none" stroke="#26324e" stroke-width="2.6" stroke-linecap="round"/><path id="mouth" d="M89,119 Q100,128 111,119" fill="none" stroke="#26324e" stroke-width="3" stroke-linecap="round"/><path id="fangR" d="m 105.37,124.5 6.30,4.28 0.14,-7.21 z" fill="#ffffff"/><path id="fangL" d="m 94.17,124.0 -6.30,4.28 -0.14,-7.21 z" fill="#ffffff"/><g id="whiskers" stroke="#26324e" stroke-width="2" stroke-linecap="round" opacity="0.75"><path d="M60,108 L40,104" fill="none"/><path d="M60,114 L40,116" fill="none"/><path d="M140,108 L160,104" fill="none"/><path d="M140,114 L160,116" fill="none"/></g><g id="eyeL"><ellipse cx="78" cy="84" rx="13.0" ry="15.0" fill="#ffffff"/><ellipse cx="80" cy="86" rx="6.5" ry="8.5" fill="url(#eyeGradL)"/><circle cx="82.5" cy="82" r="2.6" fill="#ffffff"/></g><g id="eyeR"><ellipse cx="122" cy="84" rx="13.0" ry="15.0" fill="#ffffff"/><ellipse cx="124" cy="86" rx="6.5" ry="8.5" fill="url(#eyeGradR)"/><circle cx="126.5" cy="82" r="2.6" fill="#ffffff"/></g><ellipse id="cheekL" cx="62" cy="104" rx="8" ry="5" fill="#ff9c9c" opacity="0.55"/><ellipse id="cheekR" cx="138" cy="104" rx="8" ry="5" fill="#ff9c9c" opacity="0.55"/></g>
</svg>
