<?xml version="1.0" encoding="UTF-8" standalone="no"?>
<svg
   viewBox="0 0 200 200"
   width="200"
   height="200"
   version="1.1"
   id="svg445"
   sodipodi:docname="stage7.svg"
   inkscape:version="1.2.2 (732a01da63, 2022-12-09)"
   xmlns:inkscape="http://www.inkscape.org/namespaces/inkscape"
   xmlns:sodipodi="http://sodipodi.sourceforge.net/DTD/sodipodi-0.dtd"
   xmlns:xlink="http://www.w3.org/1999/xlink"
   xmlns="http://www.w3.org/2000/svg"
   xmlns:svg="http://www.w3.org/2000/svg">
  <sodipodi:namedview
     id="namedview447"
     pagecolor="#ffffff"
     bordercolor="#000000"
     borderopacity="0.25"
     inkscape:showpageshadow="2"
     inkscape:pageopacity="0.0"
     inkscape:pagecheckerboard="0"
     inkscape:deskcolor="#d1d1d1"
     showgrid="false"
     inkscape:zoom="2.9309576"
     inkscape:cx="35.824469"
     inkscape:cy="128.96809"
     inkscape:window-width="1920"
     inkscape:window-height="1009"
     inkscape:window-x="-2"
     inkscape:window-y="-8"
     inkscape:window-maximized="1"
     inkscape:current-layer="dragon" />
  <title
     id="title375">Dragon — stage 7: Ultra</title>
  <defs
     id="defs384">
    <linearGradient
       inkscape:collect="always"
       id="linearGradient2121">
      <stop
         style="stop-color:#000000;stop-opacity:1;"
         offset="0.21818182"
         id="stop2117" />
      <stop
         style="stop-color:#ffbf1f;stop-opacity:1;"
         offset="1"
         id="stop2119" />
    </linearGradient>
    <radialGradient
       id="auraGrad"
       cx="50%"
       cy="55%"
       r="50%">
      <stop
         offset="0%"
         stop-color="#ffd21f"
         stop-opacity="0.55"
         id="stop377" />
      <stop
         offset="70%"
         stop-color="#ff9f2e"
         stop-opacity="0.28"
         id="stop379" />
      <stop
         offset="100%"
         stop-color="#ff9f2e"
         stop-opacity="0"
         id="stop381" />
    </radialGradient>
    <radialGradient
       inkscape:collect="always"
       xlink:href="#linearGradient2121"
       id="radialGradient2123"
       cx="80"
       cy="86"
       fx="80"
       fy="86"
       r="6.5"
       gradientTransform="matrix(1,0,0,1.3076923,0,-26.461538)"
       gradientUnits="userSpaceOnUse" />
    <radialGradient
       inkscape:collect="always"
       xlink:href="#linearGradient2121"
       id="radialGradient2123-0"
       cx="80"
       cy="86"
       fx="80"
       fy="86"
       r="6.5"
       gradientTransform="matrix(1,0,0,1.3076923,43.999997,-26.461539)"
       gradientUnits="userSpaceOnUse" />
  </defs>
  <circle
     id="aura"
     cx="100"
     cy="112"
     r="88"
     fill="url(#auraGrad)" />
  <g
     id="dragon"
     transform="translate(100,196) scale(0.93) translate(-100,-196)">
    <g
       id="wingL"
       transform="translate(100,0) scale(-1,1) translate(-100,0)">
      <path
         d="M134,106 C168,64 196,70 194,86 C184,80 174,82 168,90 C182,90 188,102 182,112 C172,106 164,108 158,116 C168,120 170,132 162,140 C146,146 132,126 132,112 Z"
         fill="#349e5c"
         id="path387" />
      <path
         d="M140,108 C164,80 184,84 182,94 C172,92 164,96 158,104 C164,108 164,118 158,124 C148,126 138,118 138,110 Z"
         fill="#8fe0c8"
         id="path389" />
    </g>
    <g
       id="wingR"
       transform="translate(100,0) scale(1,1) translate(-100,0)">
      <path
         d="M134,106 C168,64 196,70 194,86 C184,80 174,82 168,90 C182,90 188,102 182,112 C172,106 164,108 158,116 C168,120 170,132 162,140 C146,146 132,126 132,112 Z"
         fill="#349e5c"
         id="path392" />
      <path
         d="M140,108 C164,80 184,84 182,94 C172,92 164,96 158,104 C164,108 164,118 158,124 C148,126 138,118 138,110 Z"
         fill="#8fe0c8"
         id="path394" />
    </g>
    <path
       id="tail"
       d="M118,168 C150,172 168,160 172,136 C174,124 170,116 162,112 C166,124 160,140 146,148 C136,154 124,156 116,154 Z"
       fill="#45ae69" />
    <path
       id="tailFin"
       d="M162,112 C158,100 162,90 172,84 C170,94 174,98 182,98 C174,104 170,110 170,118 Z"
       fill="#349e5c" />
    <g
       id="tailFlame"
       transform="translate(170,100) scale(1.0)">
      <path
         d="M0,14 C-10,4 -8,-10 0,-20 C8,-10 10,4 0,14 Z"
         fill="#ff9f2e"
         id="path399" />
      <path
         d="M0,9 C-5,3 -4,-5 0,-11 C4,-5 5,3 0,9 Z"
         fill="#ffd21f"
         id="path401" />
    </g>
    <ellipse
       id="footL"
       cx="74"
       cy="186"
       rx="16"
       ry="11"
       fill="#27834d" />
    <ellipse
       id="footR"
       cx="126"
       cy="186"
       rx="16"
       ry="11"
       fill="#27834d" />
    <ellipse
       id="body"
       cx="100"
       cy="150"
       rx="46"
       ry="40"
       fill="#45ae69" />
    <ellipse
       id="belly"
       cx="100"
       cy="158"
       rx="30"
       ry="28"
       fill="#f6ecc3" />
    <ellipse
       id="armL"
       cx="62"
       cy="146"
       rx="10"
       ry="15"
       transform="rotate(18 62 146)"
       fill="#27834d" />
    <ellipse
       id="armR"
       cx="138"
       cy="146"
       rx="10"
       ry="15"
       transform="rotate(-18 138 146)"
       fill="#27834d" />
    <g
       id="horns"
       transform="translate(100,60) scale(1.0) translate(-100,-60)">
      <path
         d="M66,58 C58,44 58,30 68,20 C74,32 76,44 74,56 Z"
         fill="#f2e3b8"
         id="path410" />
      <path
         d="M134,58 C142,44 142,30 132,20 C126,32 124,44 126,56 Z"
         fill="#f2e3b8"
         id="path412" />
    </g>
    <circle
       id="head"
       cx="100"
       cy="92"
       r="52"
       fill="#45ae69" />
    <ellipse
       id="muzzle"
       cx="100"
       cy="114"
       rx="27"
       ry="18"
       fill="#80d495" />
    <ellipse
       id="nostrilL"
       cx="92"
       cy="109"
       rx="2.6"
       ry="3.4"
       fill="#26324e" />
    <ellipse
       id="nostrilR"
       cx="108"
       cy="109"
       rx="2.6"
       ry="3.4"
       fill="#26324e" />
    <path
       id="mouth"
       d="M88,122 Q100,130 112,122"
       fill="none"
       stroke="#26324e"
       stroke-width="3.5"
       stroke-linecap="round" />
    <path
       id="fang"
       d="m 105.36892,125.13883 6.29768,4.28244 0.13899,-7.20977 z"
       fill="#ffffff" />
    <g
       id="eyeL">
      <ellipse
         cx="78"
         cy="84"
         rx="13"
         ry="15"
         fill="#ffffff"
         id="ellipse421" />
      <ellipse
         cx="80"
         cy="86"
         rx="6.5"
         ry="8.5"
         fill="#ffd21f"
         id="ellipse423"
         style="fill-opacity:1;fill:url(#radialGradient2123)" />
      <circle
         cx="82.5"
         cy="82"
         r="2.6"
         fill="#ffffff"
         id="circle425" />
    </g>
    <g
       id="eyeR">
      <ellipse
         cx="122"
         cy="84"
         rx="13"
         ry="15"
         fill="#ffffff"
         id="ellipse428" />
      <ellipse
         cx="124"
         cy="86"
         rx="6.5"
         ry="8.5"
         fill="#ffd21f"
         id="ellipse423-3"
         style="fill:url(#radialGradient2123-0);fill-opacity:1" />
      <circle
         cx="126.5"
         cy="82"
         r="2.6"
         fill="#ffffff"
         id="circle432" />
    </g>
    <ellipse
       id="cheekL"
       cx="62"
       cy="104"
       rx="8"
       ry="5"
       fill="#ff9c9c"
       opacity="0.55" />
    <ellipse
       id="cheekR"
       cx="138"
       cy="104"
       rx="8"
       ry="5"
       fill="#ff9c9c"
       opacity="0.55" />
    <g
       id="spikes">
      <path
         d="M67,46 C72,28 80,28 85,46 L82,54 L70,54 Z"
         fill="#27834d"
         id="path437" />
      <path
         d="M91,46 C96,24 104,24 109,46 L106,54 L94,54 Z"
         fill="#27834d"
         id="path439" />
      <path
         d="M115,46 C120,28 128,28 133,46 L130,54 L118,54 Z"
         fill="#27834d"
         id="path441" />
    </g>
    <path
       id="path1538"
       d="m 94.165474,124.62 -6.29768,4.28244 -0.13899,-7.20977 z"
       fill="#ffffff" />
  </g>
</svg>
