<svg xmlns="http://www.w3.org/2000/svg" viewBox="0 0 200 200" width="200" height="200">
  <title>Unicorn — stage 0: Egg</title>
  <defs><filter id="outline" x="-15%" y="-15%" width="130%" height="130%"><feMorphology in="SourceAlpha" operator="dilate" radius="2.5" result="dil"/><feFlood flood-color="#b28bff" result="col"/><feComposite in="col" in2="dil" operator="in" result="out"/><feMerge><feMergeNode in="out"/><feMergeNode in="SourceGraphic"/></feMerge></filter></defs><g filter="url(#outline)"><g id="egg"><path d="M100,34 C138,34 158,80 158,124 C158,166 132,192 100,192 C68,192 42,166 42,124 C42,80 62,34 100,34 Z" fill="#fdfaf3"/><ellipse cx="82" cy="120" rx="9" ry="7" fill="#ffc4ec"/><ellipse cx="122" cy="98" rx="7" ry="9" fill="#ffc4ec"/><ellipse cx="104" cy="152" rx="8" ry="6" fill="#ffc4ec"/><ellipse cx="76" cy="86" rx="5" ry="6" fill="#ffc4ec"/><path d="M100,34 C76,34 60,62 54,96 C66,58 82,42 100,40 Z" fill="#ffffff" opacity="0.6"/></g></g>
</svg>
