<svg xmlns="http://www.w3.org/2000/svg" viewBox="0 0 200 200" width="200" height="200">
  <title>Unicorn — stage 3: Scrapper</title>
  <g id="pet" transform="translate(100,196) scale(0.7) translate(-100,-196)"><path id="tail" d="M140,160 C166,156 176,138 172,118 C186,132 184,158 168,170 C158,177 146,177 140,172 Z" fill="#f79ae3"/><ellipse id="footL" cx="76" cy="186" rx="15" ry="11" fill="#d8c8ea"/><ellipse id="footR" cx="124" cy="186" rx="15" ry="11" fill="#d8c8ea"/><ellipse id="body" cx="100" cy="150" rx="45" ry="39" fill="#fdfaf3"/><ellipse id="belly" cx="100" cy="158" rx="28" ry="26" fill="#f6ecdd"/><path id="earL" d="M62,56 C58,40 64,30 74,26 C80,36 80,48 74,58 Z" fill="#fdfaf3"/><path d="M66,52 C64,42 68,35 73,32 C76,39 76,47 72,53 Z" fill="#ff9c9c" opacity="0.6"/><path id="earR" d="M138,56 C142,40 136,30 126,26 C120,36 120,48 126,58 Z" fill="#fdfaf3"/><path d="M134,52 C136,42 132,35 127,32 C124,39 124,47 128,53 Z" fill="#ff9c9c" opacity="0.6"/><circle id="head" cx="100" cy="92" r="52" fill="#fdfaf3"/><g id="mane"><circle cx="47" cy="84" r="13" fill="#f79ae3"/><circle cx="54" cy="63" r="15" fill="#f79ae3"/><circle cx="70" cy="47" r="13" fill="#f79ae3"/><circle cx="90" cy="39" r="15" fill="#f79ae3"/></g><path id="horn" d="M94,52 L100,34 L106,52 Z" fill="#f2e3b8"/><path d="M96,46 L104,42" stroke="#e0a80f" stroke-width="2" /><ellipse id="muzzle" cx="100" cy="116" rx="24" ry="16" fill="#f9e9f2"/><ellipse cx="93" cy="112" rx="2.2" ry="3" fill="#26324e"/><ellipse cx="107" cy="112" rx="2.2" ry="3" fill="#26324e"/><path id="mouth" d="M90,123 Q100,130 110,123" fill="none" stroke="#26324e" stroke-width="3.2" stroke-linecap="round"/><g id="eyeL"><ellipse cx="78" cy="84" rx="13.0" ry="15.0" fill="#ffffff"/><ellipse cx="80" cy="86" rx="6.5" ry="8.5" fill="#26324e"/><circle cx="82.5" cy="82" r="2.6" fill="#ffffff"/></g><g id="eyeR"><ellipse cx="122" cy="84" rx="13.0" ry="15.0" fill="#ffffff"/><ellipse cx="124" cy="86" rx="6.5" ry="8.5" fill="#26324e"/><circle cx="126.5" cy="82" r="2.6" fill="#ffffff"/></g><ellipse id="cheekL" cx="62" cy="104" rx="8" ry="5" fill="#ff9c9c" opacity="0.55"/><ellipse id="cheekR" cx="138" cy="104" rx="8" ry="5" fill="#ff9c9c" opacity="0.55"/></g>
</svg>
