<svg xmlns="http://www.w3.org/2000/svg" viewBox="0 0 200 200" width="200" height="200">
  <title>Dino — stage 2: Kid</title>
  <g id="pet" transform="translate(100,196) scale(0.62) translate(-100,-196)"><path id="tail" d="M118,166 C148,170 168,158 174,136 C176,124 170,114 162,112 C166,126 158,142 144,150 C134,156 124,158 116,156 Z" fill="#8aa8d8"/><ellipse id="footL" cx="74" cy="186" rx="17" ry="11" fill="#6886ba"/><ellipse id="footR" cx="126" cy="186" rx="17" ry="11" fill="#6886ba"/><ellipse id="body" cx="100" cy="150" rx="46" ry="40" fill="#8aa8d8"/><ellipse id="belly" cx="100" cy="158" rx="29" ry="27" fill="#f2ecc8"/><circle cx="63" cy="144" r="4.5" fill="#6886ba" id="bodyDotL"/><circle cx="137" cy="144" r="4.5" fill="#6886ba" id="bodyDotR"/><ellipse id="armL" cx="64" cy="146" rx="9" ry="13" transform="rotate(22 64 146)" fill="#6886ba"/><ellipse id="armR" cx="136" cy="146" rx="9" ry="13" transform="rotate(-22 136 146)" fill="#6886ba"/><circle id="head" cx="100" cy="92" r="50" fill="#8aa8d8"/><ellipse id="muzzle" cx="100" cy="116" rx="28" ry="18" fill="#b0c8ec"/><ellipse cx="90" cy="112" rx="2.6" ry="3.4" fill="#26324e"/><ellipse cx="110" cy="112" rx="2.6" ry="3.4" fill="#26324e"/><path id="mouth" d="M86,124 Q100,132 114,124" fill="none" stroke="#26324e" stroke-width="3.5" stroke-linecap="round"/><g id="eyeL"><ellipse cx="78" cy="84" rx="13.0" ry="15.0" fill="#ffffff"/><ellipse cx="80" cy="86" rx="6.5" ry="8.5" fill="#26324e"/><circle cx="82.5" cy="82" r="2.6" fill="#ffffff"/></g><g id="eyeR"><ellipse cx="122" cy="84" rx="13.0" ry="15.0" fill="#ffffff"/><ellipse cx="124" cy="86" rx="6.5" ry="8.5" fill="#26324e"/><circle cx="126.5" cy="82" r="2.6" fill="#ffffff"/></g><ellipse id="cheekL" cx="62" cy="104" rx="8" ry="5" fill="#ff9c9c" opacity="0.55"/><ellipse id="cheekR" cx="138" cy="104" rx="8" ry="5" fill="#ff9c9c" opacity="0.55"/></g>
</svg>
