<svg xmlns="http://www.w3.org/2000/svg" viewBox="0 0 200 200" width="200" height="200">
  <title>Dino — stage 3: Scrapper</title>
  <g id="pet" transform="translate(100,196) scale(0.7) translate(-100,-196)"><path id="tail" d="M118,166 C150,170 170,158 176,134 C178,122 172,112 164,110 C168,124 160,142 146,150 C136,156 124,158 116,156 Z" fill="#67c3a3"/><ellipse id="footL" cx="74" cy="186" rx="17" ry="11" fill="#439c7e"/><ellipse id="footR" cx="126" cy="186" rx="17" ry="11" fill="#439c7e"/><ellipse id="body" cx="100" cy="150" rx="46" ry="40" fill="#67c3a3"/><ellipse id="belly" cx="100" cy="158" rx="29" ry="27" fill="#f2ecc8"/><ellipse id="armL" cx="64" cy="146" rx="9" ry="13" transform="rotate(22 64 146)" fill="#439c7e"/><ellipse id="armR" cx="136" cy="146" rx="9" ry="13" transform="rotate(-22 136 146)" fill="#439c7e"/><g id="plates"><path d="M66,48 C71,29 81,29 86,48 L82,56 L70,56 Z" fill="#ff9f2e"/><path d="M90,48 C95,24 105,24 110,48 L106,56 L94,56 Z" fill="#ff9f2e"/></g><circle id="head" cx="100" cy="92" r="52" fill="#67c3a3"/><ellipse id="muzzle" cx="100" cy="116" rx="30" ry="19" fill="#93debf"/><ellipse cx="90" cy="110" rx="2.8" ry="3.6" fill="#26324e"/><ellipse cx="110" cy="110" rx="2.8" ry="3.6" fill="#26324e"/><path id="mouth" d="M84,124 Q100,133 116,124" fill="none" stroke="#26324e" stroke-width="3.5" stroke-linecap="round"/><g id="eyeL"><ellipse cx="78" cy="84" rx="13.0" ry="15.0" fill="#ffffff"/><ellipse cx="80" cy="86" rx="6.5" ry="8.5" fill="#26324e"/><circle cx="82.5" cy="82" r="2.6" fill="#ffffff"/></g><g id="eyeR"><ellipse cx="122" cy="84" rx="13.0" ry="15.0" fill="#ffffff"/><ellipse cx="124" cy="86" rx="6.5" ry="8.5" fill="#26324e"/><circle cx="126.5" cy="82" r="2.6" fill="#ffffff"/></g><ellipse id="cheekL" cx="62" cy="104" rx="8" ry="5" fill="#ff9c9c" opacity="0.55"/><ellipse id="cheekR" cx="138" cy="104" rx="8" ry="5" fill="#ff9c9c" opacity="0.55"/></g>
</svg>
